<svg id="Capa_1" data-name="Capa 1" xmlns="http://www.w3.org/2000/svg" xmlns:xlink="http://www.w3.org/1999/xlink" viewBox="0 0 726.92443 166.46786"><defs><style>.cls-1{fill:url(#Degradado_sin_nombre_157);}.cls-2{fill:url(#Degradado_sin_nombre_164);}.cls-3{fill:url(#Degradado_sin_nombre_157-2);}.cls-4{fill:url(#Degradado_sin_nombre_131);}.cls-5{fill:url(#Degradado_sin_nombre_157-3);}.cls-6{fill:url(#Degradado_sin_nombre_131-2);}.cls-7{fill:url(#Degradado_sin_nombre_131-3);}.cls-8{fill:url(#Degradado_sin_nombre_131-4);}.cls-9{fill:#1e5e9f;}.cls-10{fill:#29a6df;}</style><linearGradient id="Degradado_sin_nombre_157" x1="152.89261" y1="115.38952" x2="185.06043" y2="115.38952" gradientTransform="translate(0.19437 -0.28413) rotate(0.0964)" gradientUnits="userSpaceOnUse"><stop offset="0" stop-color="#2bbbee"/><stop offset="0.00013" stop-color="#29b1e7"/><stop offset="0.00056" stop-color="#2596d3"/><stop offset="0.00104" stop-color="#2180c3"/><stop offset="0.00161" stop-color="#1e6fb6"/><stop offset="0.00231" stop-color="#1c64ad"/><stop offset="0.00329" stop-color="#1b5da8"/><stop offset="0.00603" stop-color="#1b5ba7"/><stop offset="0.18096" stop-color="#1d63ad"/><stop offset="0.45593" stop-color="#237abe"/><stop offset="0.79458" stop-color="#2d9ed8"/><stop offset="0.98677" stop-color="#33b6ea"/></linearGradient><linearGradient id="Degradado_sin_nombre_164" x1="753.09351" y1="112.59054" x2="792.57379" y2="112.59054" gradientTransform="matrix(1.14492, 0.01273, -0.01106, 0.99506, -794.77617, -64.36706)" gradientUnits="userSpaceOnUse"><stop offset="0.05833" stop-color="#2bbbee"/><stop offset="0.30544" stop-color="#1aa3dd"/><stop offset="0.46046" stop-color="#139ad7"/><stop offset="0.815" stop-color="#33b6ea"/></linearGradient><linearGradient id="Degradado_sin_nombre_157-2" x1="30.1466" y1="77.35595" x2="65.85636" y2="113.06571" gradientTransform="matrix(0.01103, 0.948, -0.99994, 0.01046, 144.34467, 48.72823)" xlink:href="#Degradado_sin_nombre_157"/><linearGradient id="Degradado_sin_nombre_131" x1="60.71359" y1="149.48714" x2="-11.07607" y2="25.1438" gradientTransform="translate(-3.4461 3.27293) rotate(-0.07875)" gradientUnits="userSpaceOnUse"><stop offset="0.10122" stop-color="#2bbbee"/><stop offset="0.39078" stop-color="#1aa3dd"/><stop offset="0.57245" stop-color="#139ad7"/><stop offset="0.815" stop-color="#33b6ea"/></linearGradient><linearGradient id="Degradado_sin_nombre_157-3" x1="68.11902" y1="1.55562" x2="32.91042" y2="36.76421" gradientTransform="matrix(0.01108, 0.99988, -0.99657, 0.01111, 69.04473, -31.55076)" xlink:href="#Degradado_sin_nombre_157"/><linearGradient id="Degradado_sin_nombre_131-2" x1="117.00516" y1="105.75144" x2="150.26959" y2="105.75144" gradientTransform="matrix(0.99942, -0.00168, 0.00168, 0.99654, -30.95682, -21.61986)" xlink:href="#Degradado_sin_nombre_131"/><linearGradient id="Degradado_sin_nombre_131-3" x1="140.42154" y1="120.30026" x2="206.66422" y2="120.30026" gradientTransform="matrix(0.99455, -0.01417, 0.0141, 1.0002, -21.9839, 34.69324)" xlink:href="#Degradado_sin_nombre_131"/><linearGradient id="Degradado_sin_nombre_131-4" x1="198.33052" y1="32.3488" x2="264.23186" y2="32.3488" gradientTransform="matrix(0.99465, -0.02049, 0.02047, 0.99979, -78.68568, 51.92787)" xlink:href="#Degradado_sin_nombre_131"/></defs><title>Mesa de trabajo 1</title><rect class="cls-1" x="152.9319" y="92.02006" width="32.08923" height="46.73891" transform="translate(-0.19389 0.28445) rotate(-0.0964)"/><polygon class="cls-2" points="111.275 69.875 65.576 114.144 66.84 0.358 111.62 38.787 111.275 69.875"/><rect class="cls-3" x="30.94602" y="79.10479" width="37.44601" height="32.24888" transform="translate(-46.10219 143.84498) rotate(-89.36809)"/><polygon class="cls-4" points="32.746 166.998 0 166.634 1.479 33.546 34.602 0 32.746 166.998"/><rect class="cls-5" x="31.51726" y="3.05069" width="37.98566" height="32.24031" transform="translate(30.77907 69.46475) rotate(-89.3632)"/><polygon class="cls-6" points="86.255 141.319 119.54 166.781 119.263 0.245 86.019 0.301 86.255 141.319"/><polygon class="cls-7" points="119.516 138.842 119.563 166.806 151.722 166.751 185.062 138.732 119.516 138.842"/><polygon class="cls-8" points="119.293 67.041 119.498 92.542 185.064 92.015 151.462 66.782 119.293 67.041"/><path class="cls-9" d="M281.64768,97.38939q0,16.20657-10.1286,24.78854-10.12909,8.585-28.80566,8.58347h-9.13269v35.70646H212.29361V66.07722h32.06748q18.2654,0,27.77624,7.86218Q281.64669,81.80258,281.64768,97.38939Zm-48.06695,15.93045h7.00383q9.81922,0,14.69495-3.87957,4.87473-3.87832,4.87547-11.29557,0-7.48353-4.08615-11.05548-4.08615-3.56994-12.80618-3.57094h-9.68192Z"/><path class="cls-9" d="M328.47364,166.46786H307.53016V59.62211h20.94348Z"/><path class="cls-9" d="M358.13314,69.85375q0-10.23114,11.39862-10.23164,11.39711,0,11.39861,10.23164a9.97337,9.97337,0,0,1-2.85015,7.58757q-2.84965,2.71385-8.54846,2.7126Q358.13164,80.15392,358.13314,69.85375ZM379.969,166.46786H359.02551V89.69828H379.969Z"/><path class="cls-10" d="M453.23164,88.2567q13.5955,0,21.28662,10.60879,7.69061,10.60929,7.69111,29.08077,0,19.02021-7.93121,29.45793-7.93071,10.43821-21.59574,10.43722-13.528,0-21.21859-9.819h-1.44159l-3.50241,8.44542H410.52135V59.62211h20.94248V84.47967q0,4.73817-.82334,15.17564h.82334Q438.8108,88.25744,453.23164,88.2567Zm-6.72973,16.75478q-7.75964,0-11.32958,4.77193-3.57144,4.77343-3.7085,15.75938v2.26592q0,12.35974,3.67449,17.71567,3.672,5.35566,11.63871,5.35617,6.45411,0,10.26515-5.93941,3.81155-5.9394,3.81154-17.26949,0-11.33034-3.84555-16.99538A12.05818,12.05818,0,0,0,446.50191,105.01148Z"/><path class="cls-10" d="M577.85809,127.94626q0,18.74559-9.888,29.32087-9.889,10.57477-27.53614,10.57428a38.51412,38.51412,0,0,1-19.5009-4.841,32.20607,32.20607,0,0,1-12.97825-13.90563,46.72079,46.72079,0,0,1-4.53183-21.14856q0-18.81385,9.819-29.25234,9.82-10.43673,27.60417-10.43722a38.74745,38.74745,0,0,1,19.5019,4.80644,32.08934,32.08934,0,0,1,12.97825,13.80209Q577.85808,115.86213,577.85809,127.94626Zm-53.07949,0q0,11.39862,3.74151,17.235,3.74252,5.83736,12.18894,5.83636,8.37639,0,12.05088-5.80235,3.67348-5.80134,3.67348-17.269,0-11.39785-3.7075-17.09842-3.708-5.69856-12.15392-5.69931-8.37939,0-12.08589,5.6653Q524.7781,116.47863,524.7786,127.94626Z"/><path class="cls-10" d="M636.08265,151.15566a45.35525,45.35525,0,0,0,13.18434-2.404V164.339q-7.82716,3.50242-19.22678,3.50242-12.56609,0-18.29941-6.35157-5.73533-6.35056-5.73432-19.05571v-37.011H595.98142V96.56506l11.53567-7.00384,6.04345-16.20556H626.95V89.69828h21.4937v15.72487H626.95v37.011q0,4.4658,2.507,6.59267A9.8854,9.8854,0,0,0,636.08265,151.15566Z"/><path class="cls-10" d="M726.92443,143.67063q0,11.81127-8.20533,17.99028-8.20682,6.181-24.54893,6.1805a77.09753,77.09753,0,0,1-14.28278-1.13346,53.90431,53.90431,0,0,1-11.05548-3.33035v-17.304a72.89683,72.89683,0,0,0,13.15032,4.60086,53.21426,53.21426,0,0,0,12.87422,1.85375q11.3986,0,11.39961-6.59167a5.504,5.504,0,0,0-1.51161-4.01662,21.88542,21.88542,0,0,0-5.21811-3.50242q-3.708-1.95679-9.888-4.56585-8.85809-3.708-13.01226-6.86678a19.30766,19.30766,0,0,1-6.04345-7.24443,23.90115,23.90115,0,0,1-1.88776-10.05957q0-10.23114,7.93121-15.82791,7.93071-5.59576,22.4881-5.59626a63.84491,63.84491,0,0,1,26.98592,6.04244l-6.31755,15.10662q-5.76684-2.47151-10.78037-4.05114a33.87244,33.87244,0,0,0-10.23114-1.57914q-9.27075,0-9.26975,5.01253,0,2.81664,2.98621,4.87547,2.9877,2.05959,13.08129,6.111,8.99465,3.64049,13.18434,6.79826a20.10906,20.10906,0,0,1,6.1795,7.27894A22.36377,22.36377,0,0,1,726.92443,143.67063Z"/></svg>