<?xml version="1.0" encoding="UTF-8"?>
<svg id="SVGDoc" width="271" height="40" xmlns="http://www.w3.org/2000/svg" version="1.1" xmlns:xlink="http://www.w3.org/1999/xlink" xmlns:avocode="https://avocode.com/" viewBox="0 0 271 40"><defs></defs><desc>Generated with Avocode.</desc><g><g><title>Group 22</title><g><title>Fill 1</title><path d="M0,0v0v17.09277v0h8.85161v0v-5.18591v0h7.78281v0v-4.17163v0h8.2812v0v-7.73523v0z" fill="#ffffff" fill-opacity="1"></path></g><g><title>Fill 2</title><path d="M30.81,0v0v7.83521v0h8.33002v0v4.16479v0h7.77881v0v5.07007v0h8.80679v0v-17.07007v0z" fill="#ffffff" fill-opacity="1"></path></g><g><title>Fill 3</title><path d="M46.86002,23.07996v0v5.15442v0h-7.7816v0v4.12598v0h-8.15842v0v7.63965v0h24.72961v0v-16.92004v0z" fill="#ffffff" fill-opacity="1"></path></g><g><title>Fill 4</title><path d="M0.06,23.08997v0v16.85767v0h24.74883v0v-7.61157v0h-8.2552v0v-4.18286v0h-7.77241v0v-5.06323v0z" fill="#ffffff" fill-opacity="1"></path></g><g><title>Fill 5</title><path d="M24.13721,12.30005v0v5.69995v0h-7.35721v0v4.25684v0h7.43321v0v5.58679v0h7.312v0v-5.62598v0h7.40401v0v-4.30042v0h-7.46161v0v-5.61719v0z" fill="#ffffff" fill-opacity="1"></path></g><g><title>Fill 6</title><path d="M93.42882,27.44763c-3.65039,1.23279 -7.17961,1.36206 -10.72441,0.21606c-3.1292,-1.01196 -5.4724,-2.83716 -5.8616,-6.33679c-0.37599,-3.38123 1.4808,-6.40405 4.8096,-8.02563c2.8356,-1.38159 5.87881,-1.84717 8.95721,-1.36365c2.39038,0.37244 4.6756,1.16443 6.94801,1.75366v-2.45007c-5.22762,-1.24121 -10.39322,-1.3772 -15.55763,-0.24121c-4.70039,1 -8.8316,2.94727 -10.71001,7.88245v3.20007c2.01561,4.86035 6.16362,6.6272 10.91162,7.53357c0.63559,0.12122 1.2592,0.3092 1.8884,0.46643h7.20001c2.6348,-0.5752 5.26921,-1.15039 7.7968,-1.70203v-8.51318v0h-5.658v0z" fill="#ffffff" fill-opacity="1"></path></g><g><title>Fill 8</title><path d="M233.43921,20.31604c1.332,-0.38245 2.69922,-0.82727 3.87122,-1.54077c2.8916,-1.77527 2.81,-4.87048 -0.19519,-6.4248c-1.38922,-0.71887 -2.99121,-1.35046 -4.52521,-1.40845c-5.50961,-0.26355 -11.03162,-0.27722 -16.59003,-0.37195c-0.0564,-0.00171 -0.1568,0.16479 -0.19,0.19397v18.86597v0h5.67041v0v-8.20361c0.51959,0 1.034,-0.15918 1.29721,0.02441c3.81519,2.66077 7.59799,5.36768 11.5332,8.16602h6.68918c-4.16519,-2.94043 -7.94397,-5.61682 -12,-8.49121c1.83002,-0.32043 3.16922,-0.44482 4.43921,-0.80957M221.4632,19.57727v0v-7.40283c3.60001,-0.17444 7.23203,-0.36121 10.61563,1.32031c2.15759,1.07202 2.2464,3.44971 0.08759,4.50525c-1.7532,0.81885 -3.76559,1.22205 -5.7092,1.52808c-1.55081,0.2439 -3.17041,0.04919 -4.99402,0.04919" fill="#ffffff" fill-opacity="1"></path></g><g><title>Fill 10</title><path d="M258.18402,16.68958c2.81598,-1.87952 5.93478,-3.90356 9.27319,-6.09961h-4.45721c-4.25919,2.89526 -8.4176,5.72729 -12.80399,8.71521v-8.67395v0h-5.56601v0v19.01074v0h5.59122v0v-7.58557c1.18158,-0.74805 2.45798,-1.55713 3.836,-2.42957c3.38959,3.37317 6.70721,6.75842 9.94278,10.03516h6.23804c-3.97681,-4.28003 -7.9548,-8.56116 -12.05402,-12.97241" fill="#ffffff" fill-opacity="1"></path></g><g><title>Fill 13</title><path d="M185.10562,12.55005c-1.4772,-0.82007 -3.21561,-1.55005 -4.87079,-1.60486c-5.50842,-0.28479 -11.03323,-0.26843 -16.55203,-0.35522c-0.086,-0.00159 -0.1748,0.15649 -0.20279,0.18323v18.87122v0h5.668v0v-8.40564c2.5036,0 4.85199,0.12329 7.15079,-0.02991c3.13321,-0.20886 6.26044,-0.6709 8.92322,-2.52881c2.57559,-1.79687 2.56641,-4.68005 -0.11639,-6.13M178.90643,18.65881c-3.1084,1.20239 -6.34003,1.17847 -9.73083,0.97046v-7.39685c3.31961,-0.28918 6.54443,-0.23242 9.66724,0.82996c1.26318,0.43408 2.508,1.07239 2.47519,2.7428c-0.03119,1.58887 -1.12799,2.3573 -2.41159,2.85364" fill="#ffffff" fill-opacity="1"></path></g><g><title>Fill 15</title><path d="M199.84363,10.56006c4.15637,6.31592 8.2384,12.63879 12.43439,19.07556h-6.41721c-1.18039,-2.04358 -2.30399,-3.98962 -3.40518,-5.89636h-12.59042c-1.1264,1.89636 -2.30441,3.87878 -3.5188,5.92322h-3.73642c4.15723,-6.34204 8.25003,-12.58606 12.52203,-19.10242zM201.32361,21.92725c-1.7872,-2.81885 -3.3768,-5.3252 -5.12079,-8.07568c-1.7464,2.75562 -3.35721,5.29724 -5.11801,8.07568z" fill="#ffffff" fill-opacity="1"></path></g><g><title>Fill 17</title><path d="M111.32361,27.86841v0v-7.23755v0h11.54082c-0.0408,-0.63086 -0.06641,-1.08484 -0.10561,-1.7229h-11.45761v0v-6.71802v0h14.42722v0v-1.57996v0h-20.03842v0v19.0144v0h20.89041c-0.05159,-0.62439 -0.09239,-1.12915 -0.1436,-1.75598z" fill="#ffffff" fill-opacity="1"></path></g><g><title>Fill 19</title><path d="M152.60857,11.71716c-5.7576,-2.14563 -11.60857,-2.14233 -17.38242,0.08801c-3.93082,1.52686 -5.99602,4.74841 -5.81522,8.69763c0.18721,4.08679 2.34201,6.84961 6.10762,8.32764c1.34999,0.52954 2.784,0.84558 4.1796,1.25879h8.40001c1.56281,-0.51404 3.17,-0.92163 4.67841,-1.56287c3.84081,-1.63232 5.7668,-4.60364 5.68242,-8.78235c-0.08121,-4.00562 -2.25961,-6.68884 -5.85042,-8.02686M143.62254,28.48962c-5.47839,-0.08484 -8.474,-3.07849 -8.42319,-8.41846c0.05119,-5.41956 3.15399,-8.37756 8.73039,-8.32324c5.50562,0.05371 8.61801,3.15723 8.57242,8.54761c-0.04521,5.30249 -3.2724,8.28125 -8.87962,8.19409" fill="#ffffff" fill-opacity="1"></path></g></g></g></svg>